<svg width="670" height="97" viewBox="0 0 670 97" fill="none" xmlns="http://www.w3.org/2000/svg">
<path d="M80.5625 39H75.7109V25.6172H65.8672V39H61.0156V8.41406H65.8672V21.2344H75.7109V8.41406H80.5625V39ZM90.5234 29.9297C90.7578 31.4297 91.4688 32.6797 92.6562 33.6797C93.8594 34.6641 95.4688 35.1562 97.4844 35.1562C99.0625 35.1562 100.43 34.9141 101.586 34.4297C102.758 33.9297 103.766 33.2734 104.609 32.4609L107.094 35.8828C105.688 37.2891 104.195 38.25 102.617 38.7656C101.055 39.2812 99.3438 39.5391 97.4844 39.5391C95.7969 39.5391 94.2266 39.2578 92.7734 38.6953C91.3203 38.1328 90.0625 37.3516 89 36.3516C87.9375 35.3359 87.1016 34.1328 86.4922 32.7422C85.8984 31.3516 85.6016 29.8047 85.6016 28.1016C85.6016 26.4453 85.875 24.9219 86.4219 23.5312C86.9844 22.125 87.7656 20.9141 88.7656 19.8984C89.7812 18.8672 90.9922 18.0703 92.3984 17.5078C93.8047 16.9297 95.3594 16.6406 97.0625 16.6406C98.8281 16.6406 100.43 16.9453 101.867 17.5547C103.305 18.1484 104.531 19.0156 105.547 20.1562C106.578 21.2969 107.383 22.6953 107.961 24.3516C108.539 25.9922 108.828 27.8516 108.828 29.9297H90.5234ZM103.344 25.6641C103.094 24.2578 102.367 23.1328 101.164 22.2891C99.9609 21.4297 98.5938 21 97.0625 21C95.5312 21 94.1562 21.4297 92.9375 22.2891C91.7188 23.1328 90.9844 24.2578 90.7344 25.6641H103.344ZM130.648 39H115.977V34.6406H120.758V12.7969H115.977V8.41406H125.609V34.6406H130.648V39ZM139.625 17.1562H144.477V19.125C145.398 18.2969 146.328 17.6797 147.266 17.2734C148.219 16.8516 149.305 16.6406 150.523 16.6406C151.93 16.6406 153.234 16.9297 154.438 17.5078C155.641 18.0703 156.672 18.8594 157.531 19.875C158.391 20.875 159.07 22.0859 159.57 23.5078C160.07 24.9141 160.32 26.4453 160.32 28.1016C160.32 29.7734 160.07 31.3125 159.57 32.7188C159.07 34.125 158.391 35.3359 157.531 36.3516C156.672 37.3516 155.641 38.1328 154.438 38.6953C153.234 39.2578 151.93 39.5391 150.523 39.5391C149.305 39.5391 148.219 39.3203 147.266 38.8828C146.328 38.4453 145.398 37.8125 144.477 36.9844V47.7422H139.625V17.1562ZM144.477 33.1406C145.055 33.7812 145.789 34.2812 146.68 34.6406C147.586 34.9844 148.453 35.1562 149.281 35.1562C151.109 35.1562 152.594 34.5078 153.734 33.2109C154.891 31.9141 155.469 30.2109 155.469 28.1016C155.469 25.9922 154.891 24.2812 153.734 22.9688C152.594 21.6562 151.109 21 149.281 21C148.453 21 147.586 21.1719 146.68 21.5156C145.789 21.8438 145.055 22.3281 144.477 22.9688V33.1406ZM178.555 14.3203H172.648V8.41406H178.555V14.3203ZM183.008 39H168.336V34.6406H173.164V21.5391H168.336V17.1562H178.016V34.6406H183.008V39ZM211.578 39H206.727V25.5234C206.727 23.8203 206.406 22.6406 205.766 21.9844C205.125 21.3281 204.195 21 202.977 21C201.18 21 199.711 21.7266 198.57 23.1797C197.445 24.6328 196.883 26.6406 196.883 29.2031V39H192.031V17.1562H196.883V22.6406C197.367 20.75 198.266 19.2812 199.578 18.2344C200.891 17.1719 202.508 16.6406 204.43 16.6406C206.664 16.6406 208.414 17.3672 209.68 18.8203C210.945 20.2734 211.578 22.5078 211.578 25.5234V39ZM237.781 38.7656C237.781 40.2656 237.523 41.6016 237.008 42.7734C236.492 43.9453 235.766 44.9375 234.828 45.75C233.906 46.5625 232.812 47.1797 231.547 47.6016C230.297 48.0391 228.898 48.2578 227.352 48.2578C223.555 48.2578 220.312 47.1094 217.625 44.8125L219.922 41.0625C222.156 42.9844 224.633 43.9453 227.352 43.9453C229.023 43.9453 230.367 43.5312 231.383 42.7031C232.414 41.8906 232.93 40.6094 232.93 38.8594V36.5156C231.93 37.375 230.969 38.0156 230.047 38.4375C229.125 38.8438 228.055 39.0469 226.836 39.0469C225.43 39.0469 224.125 38.75 222.922 38.1562C221.719 37.5625 220.68 36.7578 219.805 35.7422C218.945 34.7109 218.266 33.5156 217.766 32.1562C217.281 30.7969 217.039 29.3516 217.039 27.8203C217.039 26.2891 217.281 24.8438 217.766 23.4844C218.266 22.1094 218.945 20.9219 219.805 19.9219C220.68 18.9062 221.719 18.1094 222.922 17.5312C224.125 16.9375 225.43 16.6406 226.836 16.6406C228.055 16.6406 229.141 16.8516 230.094 17.2734C231.047 17.6797 231.992 18.2969 232.93 19.125V17.1562H237.781V38.7656ZM232.93 22.9688C232.352 22.3281 231.602 21.8438 230.68 21.5156C229.773 21.1719 228.891 21 228.031 21C226.203 21 224.719 21.6406 223.578 22.9219C222.453 24.2031 221.891 25.8359 221.891 27.8203C221.891 28.8047 222.039 29.7188 222.336 30.5625C222.648 31.3906 223.07 32.1094 223.602 32.7188C224.148 33.3281 224.797 33.8125 225.547 34.1719C226.312 34.5156 227.141 34.6875 228.031 34.6875C228.891 34.6875 229.773 34.5156 230.68 34.1719C231.602 33.8125 232.352 33.3125 232.93 32.6719V22.9688ZM291.148 17.1562L281.727 43.2656C281.023 45.1562 280 46.4531 278.656 47.1562C277.312 47.8594 275.711 48.2109 273.852 48.2109C273.211 48.2109 272.523 48.1484 271.789 48.0234C271.055 47.8984 270.289 47.6875 269.492 47.3906L270.5 42.9375C271.172 43.1875 271.789 43.3594 272.352 43.4531C272.914 43.5625 273.414 43.6172 273.852 43.6172C275.305 43.6172 276.297 42.9766 276.828 41.6953L277.695 39.5859L269.352 17.1562H274.391L280.391 33.6797L285.945 17.1562H291.148ZM318.102 28.1016C318.102 29.8047 317.828 31.3516 317.281 32.7422C316.75 34.1328 315.977 35.3359 314.961 36.3516C313.961 37.3516 312.758 38.1328 311.352 38.6953C309.945 39.2578 308.375 39.5391 306.641 39.5391C304.938 39.5391 303.383 39.2578 301.977 38.6953C300.57 38.1328 299.359 37.3516 298.344 36.3516C297.344 35.3359 296.57 34.1328 296.023 32.7422C295.492 31.3516 295.227 29.8047 295.227 28.1016C295.227 26.4453 295.492 24.9141 296.023 23.5078C296.57 22.0859 297.344 20.8672 298.344 19.8516C299.359 18.8203 300.57 18.0312 301.977 17.4844C303.383 16.9219 304.938 16.6406 306.641 16.6406C308.375 16.6406 309.945 16.9219 311.352 17.4844C312.758 18.0312 313.961 18.8203 314.961 19.8516C315.977 20.8672 316.75 22.0859 317.281 23.5078C317.828 24.9141 318.102 26.4453 318.102 28.1016ZM313.273 28.1016C313.273 27.1172 313.117 26.1875 312.805 25.3125C312.508 24.4219 312.07 23.6641 311.492 23.0391C310.914 22.4141 310.211 21.9219 309.383 21.5625C308.57 21.1875 307.656 21 306.641 21C305.609 21 304.688 21.1875 303.875 21.5625C303.062 21.9219 302.375 22.4141 301.812 23.0391C301.25 23.6641 300.812 24.4219 300.5 25.3125C300.203 26.1875 300.055 27.1172 300.055 28.1016C300.055 29.1328 300.203 30.0703 300.5 30.9141C300.812 31.7578 301.25 32.5 301.812 33.1406C302.375 33.7812 303.062 34.2812 303.875 34.6406C304.688 34.9844 305.609 35.1562 306.641 35.1562C307.656 35.1562 308.57 34.9844 309.383 34.6406C310.211 34.2812 310.914 33.7812 311.492 33.1406C312.07 32.5 312.508 31.7578 312.805 30.9141C313.117 30.0703 313.273 29.1328 313.273 28.1016ZM323.047 17.1562H327.898V30.6562C327.898 32.3438 328.219 33.5156 328.859 34.1719C329.5 34.8281 330.43 35.1562 331.648 35.1562C333.43 35.1562 334.891 34.4297 336.031 32.9766C337.172 31.5234 337.742 29.5156 337.742 26.9531V17.1562H342.594V39H337.742V33.5391C337.258 35.4141 336.359 36.8828 335.047 37.9453C333.734 39.0078 332.117 39.5391 330.195 39.5391C327.961 39.5391 326.211 38.8125 324.945 37.3594C323.68 35.8906 323.047 33.6562 323.047 30.6562V17.1562ZM396.148 21.5391H387.641V34.6406H392.633V39H377.961V34.6406H382.789V21.5391H377.961V17.1562H382.789C382.789 14.1562 383.711 11.8672 385.555 10.2891C387.398 8.69531 389.891 7.89844 393.031 7.89844C393.5 7.89844 394 7.92188 394.531 7.96875C395.062 8.01562 395.602 8.07031 396.148 8.13281V12.3984C395.211 12.3047 394.359 12.2578 393.594 12.2578C392.344 12.2578 391.336 12.3516 390.57 12.5391C389.805 12.7109 389.203 13 388.766 13.4062C388.344 13.7969 388.047 14.3047 387.875 14.9297C387.719 15.5547 387.641 16.2969 387.641 17.1562H396.148V21.5391ZM414.383 14.3203H408.477V8.41406H414.383V14.3203ZM418.836 39H404.164V34.6406H408.992V21.5391H404.164V17.1562H413.844V34.6406H418.836V39ZM447.406 39H442.555V25.5234C442.555 23.8203 442.234 22.6406 441.594 21.9844C440.953 21.3281 440.023 21 438.805 21C437.008 21 435.539 21.7266 434.398 23.1797C433.273 24.6328 432.711 26.6406 432.711 29.2031V39H427.859V17.1562H432.711V22.6406C433.195 20.75 434.094 19.2812 435.406 18.2344C436.719 17.1719 438.336 16.6406 440.258 16.6406C442.492 16.6406 444.242 17.3672 445.508 18.8203C446.773 20.2734 447.406 22.5078 447.406 25.5234V39ZM473.609 39H468.758V36.9844C467.82 37.8125 466.875 38.4453 465.922 38.8828C464.969 39.3203 463.883 39.5391 462.664 39.5391C461.258 39.5391 459.953 39.2578 458.75 38.6953C457.547 38.1328 456.508 37.3516 455.633 36.3516C454.773 35.3359 454.094 34.125 453.594 32.7188C453.109 31.3125 452.867 29.7734 452.867 28.1016C452.867 26.4453 453.109 24.9141 453.594 23.5078C454.094 22.0859 454.773 20.875 455.633 19.875C456.508 18.8594 457.547 18.0703 458.75 17.5078C459.953 16.9297 461.258 16.6406 462.664 16.6406C463.883 16.6406 464.969 16.8516 465.922 17.2734C466.875 17.6797 467.82 18.2969 468.758 19.125V12.7969H464.539V8.41406H473.609V39ZM468.758 22.9688C468.18 22.3281 467.43 21.8438 466.508 21.5156C465.602 21.1719 464.734 21 463.906 21C462.078 21 460.586 21.6562 459.43 22.9688C458.289 24.2812 457.719 25.9922 457.719 28.1016C457.719 30.2109 458.289 31.9141 459.43 33.2109C460.586 34.5078 462.078 35.1562 463.906 35.1562C464.734 35.1562 465.602 34.9922 466.508 34.6641C467.43 34.3203 468.18 33.8281 468.758 33.1875V22.9688ZM526.977 17.1562L517.555 43.2656C516.852 45.1562 515.828 46.4531 514.484 47.1562C513.141 47.8594 511.539 48.2109 509.68 48.2109C509.039 48.2109 508.352 48.1484 507.617 48.0234C506.883 47.8984 506.117 47.6875 505.32 47.3906L506.328 42.9375C507 43.1875 507.617 43.3594 508.18 43.4531C508.742 43.5625 509.242 43.6172 509.68 43.6172C511.133 43.6172 512.125 42.9766 512.656 41.6953L513.523 39.5859L505.18 17.1562H510.219L516.219 33.6797L521.773 17.1562H526.977ZM553.93 28.1016C553.93 29.8047 553.656 31.3516 553.109 32.7422C552.578 34.1328 551.805 35.3359 550.789 36.3516C549.789 37.3516 548.586 38.1328 547.18 38.6953C545.773 39.2578 544.203 39.5391 542.469 39.5391C540.766 39.5391 539.211 39.2578 537.805 38.6953C536.398 38.1328 535.188 37.3516 534.172 36.3516C533.172 35.3359 532.398 34.1328 531.852 32.7422C531.32 31.3516 531.055 29.8047 531.055 28.1016C531.055 26.4453 531.32 24.9141 531.852 23.5078C532.398 22.0859 533.172 20.8672 534.172 19.8516C535.188 18.8203 536.398 18.0312 537.805 17.4844C539.211 16.9219 540.766 16.6406 542.469 16.6406C544.203 16.6406 545.773 16.9219 547.18 17.4844C548.586 18.0312 549.789 18.8203 550.789 19.8516C551.805 20.8672 552.578 22.0859 553.109 23.5078C553.656 24.9141 553.93 26.4453 553.93 28.1016ZM549.102 28.1016C549.102 27.1172 548.945 26.1875 548.633 25.3125C548.336 24.4219 547.898 23.6641 547.32 23.0391C546.742 22.4141 546.039 21.9219 545.211 21.5625C544.398 21.1875 543.484 21 542.469 21C541.438 21 540.516 21.1875 539.703 21.5625C538.891 21.9219 538.203 22.4141 537.641 23.0391C537.078 23.6641 536.641 24.4219 536.328 25.3125C536.031 26.1875 535.883 27.1172 535.883 28.1016C535.883 29.1328 536.031 30.0703 536.328 30.9141C536.641 31.7578 537.078 32.5 537.641 33.1406C538.203 33.7812 538.891 34.2812 539.703 34.6406C540.516 34.9844 541.438 35.1562 542.469 35.1562C543.484 35.1562 544.398 34.9844 545.211 34.6406C546.039 34.2812 546.742 33.7812 547.32 33.1406C547.898 32.5 548.336 31.7578 548.633 30.9141C548.945 30.0703 549.102 29.1328 549.102 28.1016ZM558.875 17.1562H563.727V30.6562C563.727 32.3438 564.047 33.5156 564.688 34.1719C565.328 34.8281 566.258 35.1562 567.477 35.1562C569.258 35.1562 570.719 34.4297 571.859 32.9766C573 31.5234 573.57 29.5156 573.57 26.9531V17.1562H578.422V39H573.57V33.5391C573.086 35.4141 572.188 36.8828 570.875 37.9453C569.562 39.0078 567.945 39.5391 566.023 39.5391C563.789 39.5391 562.039 38.8125 560.773 37.3594C559.508 35.8906 558.875 33.6562 558.875 30.6562V17.1562ZM605.234 22.3359C604.656 22.0547 604.062 21.8438 603.453 21.7031C602.859 21.5469 602.172 21.4688 601.391 21.4688C600.312 21.4688 599.297 21.6328 598.344 21.9609C597.406 22.2734 596.594 22.75 595.906 23.3906C595.219 24.0312 594.68 24.8359 594.289 25.8047C593.914 26.7578 593.727 27.8906 593.727 29.2031V34.6406H598.625V39H583.93V34.6406H588.875V21.5391H583.93V17.1562H593.727V22.6406C594.523 20.4531 595.695 18.9062 597.242 18C598.805 17.0938 600.656 16.6406 602.797 16.6406C603.469 16.6406 604.172 16.7109 604.906 16.8516C605.641 16.9922 606.359 17.2422 607.062 17.6016L605.234 22.3359ZM107.375 70.3359C106.797 70.0547 106.203 69.8438 105.594 69.7031C105 69.5469 104.312 69.4688 103.531 69.4688C102.453 69.4688 101.438 69.6328 100.484 69.9609C99.5469 70.2734 98.7344 70.75 98.0469 71.3906C97.3594 72.0312 96.8203 72.8359 96.4297 73.8047C96.0547 74.7578 95.8672 75.8906 95.8672 77.2031V82.6406H100.766V87H86.0703V82.6406H91.0156V69.5391H86.0703V65.1562H95.8672V70.6406C96.6641 68.4531 97.8359 66.9062 99.3828 66C100.945 65.0938 102.797 64.6406 104.938 64.6406C105.609 64.6406 106.312 64.7109 107.047 64.8516C107.781 64.9922 108.5 65.2422 109.203 65.6016L107.375 70.3359ZM126.148 62.3203H120.242V56.4141H126.148V62.3203ZM130.602 87H115.93V82.6406H120.758V69.5391H115.93V65.1562H125.609V82.6406H130.602V87ZM159.172 86.7656C159.172 88.2656 158.914 89.6016 158.398 90.7734C157.883 91.9453 157.156 92.9375 156.219 93.75C155.297 94.5625 154.203 95.1797 152.938 95.6016C151.688 96.0391 150.289 96.2578 148.742 96.2578C144.945 96.2578 141.703 95.1094 139.016 92.8125L141.312 89.0625C143.547 90.9844 146.023 91.9453 148.742 91.9453C150.414 91.9453 151.758 91.5312 152.773 90.7031C153.805 89.8906 154.32 88.6094 154.32 86.8594V84.5156C153.32 85.375 152.359 86.0156 151.438 86.4375C150.516 86.8438 149.445 87.0469 148.227 87.0469C146.82 87.0469 145.516 86.75 144.312 86.1562C143.109 85.5625 142.07 84.7578 141.195 83.7422C140.336 82.7109 139.656 81.5156 139.156 80.1562C138.672 78.7969 138.43 77.3516 138.43 75.8203C138.43 74.2891 138.672 72.8438 139.156 71.4844C139.656 70.1094 140.336 68.9219 141.195 67.9219C142.07 66.9062 143.109 66.1094 144.312 65.5312C145.516 64.9375 146.82 64.6406 148.227 64.6406C149.445 64.6406 150.531 64.8516 151.484 65.2734C152.438 65.6797 153.383 66.2969 154.32 67.125V65.1562H159.172V86.7656ZM154.32 70.9688C153.742 70.3281 152.992 69.8438 152.07 69.5156C151.164 69.1719 150.281 69 149.422 69C147.594 69 146.109 69.6406 144.969 70.9219C143.844 72.2031 143.281 73.8359 143.281 75.8203C143.281 76.8047 143.43 77.7188 143.727 78.5625C144.039 79.3906 144.461 80.1094 144.992 80.7188C145.539 81.3281 146.188 81.8125 146.938 82.1719C147.703 82.5156 148.531 82.6875 149.422 82.6875C150.281 82.6875 151.164 82.5156 152.07 82.1719C152.992 81.8125 153.742 81.3125 154.32 80.6719V70.9688ZM185.375 87H180.523V73.5234C180.523 71.8203 180.203 70.6406 179.562 69.9844C178.922 69.3281 177.992 69 176.773 69C174.977 69 173.508 69.7266 172.367 71.1797C171.242 72.6328 170.68 74.6406 170.68 77.2031V87H165.828V56.4141H170.68V70.6406C171.164 68.75 172.062 67.2812 173.375 66.2344C174.688 65.1719 176.305 64.6406 178.227 64.6406C180.461 64.6406 182.211 65.3672 183.477 66.8203C184.742 68.2734 185.375 70.5078 185.375 73.5234V87ZM212.961 80.0391C212.711 82.3359 211.805 84.1641 210.242 85.5234C208.695 86.8672 206.758 87.5391 204.43 87.5391C203.148 87.5391 201.977 87.3281 200.914 86.9062C199.852 86.4844 198.945 85.8984 198.195 85.1484C197.445 84.3984 196.859 83.5 196.438 82.4531C196.031 81.3906 195.828 80.2344 195.828 78.9844V69.5391H190.883V65.1562H195.828V56.4141H200.68V65.1562H209.844V69.5391H200.68V78.9844C200.68 80.3906 201.023 81.4375 201.711 82.125C202.398 82.8125 203.305 83.1562 204.43 83.1562C205.805 83.1562 206.828 82.7578 207.5 81.9609C208.172 81.1641 208.57 80.2031 208.695 79.0781L212.961 80.0391ZM238.344 80.4609C238.344 81.8828 238.023 83.0391 237.383 83.9297C236.742 84.8203 235.914 85.5391 234.898 86.0859C233.898 86.6328 232.773 87.0078 231.523 87.2109C230.289 87.4297 229.078 87.5391 227.891 87.5391C225.906 87.5391 223.93 87.25 221.961 86.6719C219.992 86.0938 218.289 85.3359 216.852 84.3984L218.867 80.4141C220.586 81.4141 222.156 82.125 223.578 82.5469C225.016 82.9531 226.453 83.1562 227.891 83.1562C229.844 83.1562 231.266 82.9531 232.156 82.5469C233.047 82.125 233.492 81.5469 233.492 80.8125C233.492 80.4531 233.367 80.1562 233.117 79.9219C232.867 79.6875 232.453 79.4766 231.875 79.2891C231.297 79.0859 230.531 78.8906 229.578 78.7031C228.641 78.5 227.469 78.2891 226.062 78.0703C224.938 77.8828 223.867 77.6562 222.852 77.3906C221.852 77.1094 220.969 76.7188 220.203 76.2188C219.438 75.7188 218.82 75.0859 218.352 74.3203C217.898 73.5547 217.672 72.5938 217.672 71.4375C217.672 70.2656 217.969 69.25 218.562 68.3906C219.172 67.5156 219.961 66.7969 220.93 66.2344C221.914 65.6719 223.016 65.2656 224.234 65.0156C225.453 64.7656 226.672 64.6406 227.891 64.6406C229.609 64.6406 231.273 64.8672 232.883 65.3203C234.508 65.7578 235.93 66.3906 237.148 67.2188L235.227 70.9688C234.008 70.2031 232.82 69.6875 231.664 69.4219C230.523 69.1406 229.266 69 227.891 69C227.312 69 226.711 69.0312 226.086 69.0938C225.461 69.1562 224.883 69.2812 224.352 69.4688C223.82 69.6406 223.375 69.8828 223.016 70.1953C222.672 70.4922 222.5 70.8594 222.5 71.2969C222.5 71.875 223.008 72.3516 224.023 72.7266C225.055 73.0859 226.805 73.4453 229.273 73.8047C230.617 73.9922 231.844 74.2344 232.953 74.5312C234.062 74.8125 235.016 75.2031 235.812 75.7031C236.609 76.1875 237.227 76.8203 237.664 77.6016C238.117 78.3672 238.344 79.3203 238.344 80.4609ZM269.492 77.9766V73.6172H291.336V77.9766H269.492ZM344.164 87H338.023L330.102 74.625H327.898V87H323.047V56.4141H333.125C336.484 56.4141 339.094 57.1875 340.953 58.7344C342.812 60.2656 343.742 62.5391 343.742 65.5547C343.742 66.8984 343.531 68.0859 343.109 69.1172C342.703 70.1328 342.117 71.0078 341.352 71.7422C340.602 72.4766 339.719 73.0625 338.703 73.5C337.703 73.9219 336.617 74.2109 335.445 74.3672L344.164 87ZM338.891 65.4844C338.891 63.9219 338.375 62.75 337.344 61.9688C336.328 61.1875 334.922 60.7969 333.125 60.7969H327.898V70.2422H333.125C334.922 70.2422 336.328 69.8516 337.344 69.0703C338.375 68.2891 338.891 67.0938 338.891 65.4844ZM352.555 77.9297C352.789 79.4297 353.5 80.6797 354.688 81.6797C355.891 82.6641 357.5 83.1562 359.516 83.1562C361.094 83.1562 362.461 82.9141 363.617 82.4297C364.789 81.9297 365.797 81.2734 366.641 80.4609L369.125 83.8828C367.719 85.2891 366.227 86.25 364.648 86.7656C363.086 87.2812 361.375 87.5391 359.516 87.5391C357.828 87.5391 356.258 87.2578 354.805 86.6953C353.352 86.1328 352.094 85.3516 351.031 84.3516C349.969 83.3359 349.133 82.1328 348.523 80.7422C347.93 79.3516 347.633 77.8047 347.633 76.1016C347.633 74.4453 347.906 72.9219 348.453 71.5312C349.016 70.125 349.797 68.9141 350.797 67.8984C351.812 66.8672 353.023 66.0703 354.43 65.5078C355.836 64.9297 357.391 64.6406 359.094 64.6406C360.859 64.6406 362.461 64.9453 363.898 65.5547C365.336 66.1484 366.562 67.0156 367.578 68.1562C368.609 69.2969 369.414 70.6953 369.992 72.3516C370.57 73.9922 370.859 75.8516 370.859 77.9297H352.555ZM365.375 73.6641C365.125 72.2578 364.398 71.1328 363.195 70.2891C361.992 69.4297 360.625 69 359.094 69C357.562 69 356.188 69.4297 354.969 70.2891C353.75 71.1328 353.016 72.2578 352.766 73.6641H365.375ZM395 87H390.148V73.5234C390.148 71.8203 389.828 70.6406 389.188 69.9844C388.547 69.3281 387.617 69 386.398 69C384.602 69 383.133 69.7266 381.992 71.1797C380.867 72.6328 380.305 74.6406 380.305 77.2031V87H375.453V65.1562H380.305V70.6406C380.789 68.75 381.688 67.2812 383 66.2344C384.312 65.1719 385.93 64.6406 387.852 64.6406C390.086 64.6406 391.836 65.3672 393.102 66.8203C394.367 68.2734 395 70.5078 395 73.5234V87ZM422.586 80.0391C422.336 82.3359 421.43 84.1641 419.867 85.5234C418.32 86.8672 416.383 87.5391 414.055 87.5391C412.773 87.5391 411.602 87.3281 410.539 86.9062C409.477 86.4844 408.57 85.8984 407.82 85.1484C407.07 84.3984 406.484 83.5 406.062 82.4531C405.656 81.3906 405.453 80.2344 405.453 78.9844V69.5391H400.508V65.1562H405.453V56.4141H410.305V65.1562H419.469V69.5391H410.305V78.9844C410.305 80.3906 410.648 81.4375 411.336 82.125C412.023 82.8125 412.93 83.1562 414.055 83.1562C415.43 83.1562 416.453 82.7578 417.125 81.9609C417.797 81.1641 418.195 80.2031 418.32 79.0781L422.586 80.0391ZM447.406 87H427.859V56.4141H447.406V60.7969H432.711V69.2344H444.172V73.6172H432.711V82.6406H447.406V87ZM452.82 80.7188C452.82 79.4375 453.164 78.3203 453.852 77.3672C454.539 76.3984 455.438 75.5938 456.547 74.9531C457.672 74.3125 458.953 73.8359 460.391 73.5234C461.844 73.1953 463.32 73.0312 464.82 73.0312C465.648 73.0312 466.359 73.0469 466.953 73.0781C467.547 73.1094 468.148 73.1562 468.758 73.2188V72.3516C468.758 71.2109 468.312 70.3594 467.422 69.7969C466.547 69.2344 465.391 68.9531 463.953 68.9531C462.641 68.9531 461.305 69.1406 459.945 69.5156C458.586 69.875 457.297 70.4062 456.078 71.1094L454.109 67.3125C455.547 66.4844 457.086 65.8359 458.727 65.3672C460.383 64.8828 462.125 64.6406 463.953 64.6406C465.141 64.6406 466.305 64.7734 467.445 65.0391C468.602 65.3047 469.633 65.7422 470.539 66.3516C471.461 66.9609 472.195 67.7578 472.742 68.7422C473.289 69.7109 473.562 70.9141 473.562 72.3516V87H468.758V83.7891C467.992 84.9766 466.859 85.8984 465.359 86.5547C463.875 87.2109 462.273 87.5391 460.555 87.5391C459.492 87.5391 458.484 87.3906 457.531 87.0938C456.594 86.8125 455.781 86.3828 455.094 85.8047C454.406 85.2266 453.852 84.5156 453.43 83.6719C453.023 82.8125 452.82 81.8281 452.82 80.7188ZM461.797 83.2031C462.75 83.2031 463.641 83.0859 464.469 82.8516C465.312 82.6016 466.055 82.2656 466.695 81.8438C467.336 81.4062 467.836 80.8828 468.195 80.2734C468.57 79.6641 468.758 78.9922 468.758 78.2578V77.4375C467.992 77.3125 467.273 77.2422 466.602 77.2266C465.93 77.2109 465.336 77.2031 464.82 77.2031C462.445 77.2031 460.648 77.5156 459.43 78.1406C458.227 78.7656 457.625 79.5391 457.625 80.4609C457.625 82.2891 459.016 83.2031 461.797 83.2031ZM500.375 80.4609C500.375 81.8828 500.055 83.0391 499.414 83.9297C498.773 84.8203 497.945 85.5391 496.93 86.0859C495.93 86.6328 494.805 87.0078 493.555 87.2109C492.32 87.4297 491.109 87.5391 489.922 87.5391C487.938 87.5391 485.961 87.25 483.992 86.6719C482.023 86.0938 480.32 85.3359 478.883 84.3984L480.898 80.4141C482.617 81.4141 484.188 82.125 485.609 82.5469C487.047 82.9531 488.484 83.1562 489.922 83.1562C491.875 83.1562 493.297 82.9531 494.188 82.5469C495.078 82.125 495.523 81.5469 495.523 80.8125C495.523 80.4531 495.398 80.1562 495.148 79.9219C494.898 79.6875 494.484 79.4766 493.906 79.2891C493.328 79.0859 492.562 78.8906 491.609 78.7031C490.672 78.5 489.5 78.2891 488.094 78.0703C486.969 77.8828 485.898 77.6562 484.883 77.3906C483.883 77.1094 483 76.7188 482.234 76.2188C481.469 75.7188 480.852 75.0859 480.383 74.3203C479.93 73.5547 479.703 72.5938 479.703 71.4375C479.703 70.2656 480 69.25 480.594 68.3906C481.203 67.5156 481.992 66.7969 482.961 66.2344C483.945 65.6719 485.047 65.2656 486.266 65.0156C487.484 64.7656 488.703 64.6406 489.922 64.6406C491.641 64.6406 493.305 64.8672 494.914 65.3203C496.539 65.7578 497.961 66.3906 499.18 67.2188L497.258 70.9688C496.039 70.2031 494.852 69.6875 493.695 69.4219C492.555 69.1406 491.297 69 489.922 69C489.344 69 488.742 69.0312 488.117 69.0938C487.492 69.1562 486.914 69.2812 486.383 69.4688C485.852 69.6406 485.406 69.8828 485.047 70.1953C484.703 70.4922 484.531 70.8594 484.531 71.2969C484.531 71.875 485.039 72.3516 486.055 72.7266C487.086 73.0859 488.836 73.4453 491.305 73.8047C492.648 73.9922 493.875 74.2344 494.984 74.5312C496.094 74.8125 497.047 75.2031 497.844 75.7031C498.641 76.1875 499.258 76.8203 499.695 77.6016C500.148 78.3672 500.375 79.3203 500.375 80.4609ZM509.773 77.9297C510.008 79.4297 510.719 80.6797 511.906 81.6797C513.109 82.6641 514.719 83.1562 516.734 83.1562C518.312 83.1562 519.68 82.9141 520.836 82.4297C522.008 81.9297 523.016 81.2734 523.859 80.4609L526.344 83.8828C524.938 85.2891 523.445 86.25 521.867 86.7656C520.305 87.2812 518.594 87.5391 516.734 87.5391C515.047 87.5391 513.477 87.2578 512.023 86.6953C510.57 86.1328 509.312 85.3516 508.25 84.3516C507.188 83.3359 506.352 82.1328 505.742 80.7422C505.148 79.3516 504.852 77.8047 504.852 76.1016C504.852 74.4453 505.125 72.9219 505.672 71.5312C506.234 70.125 507.016 68.9141 508.016 67.8984C509.031 66.8672 510.242 66.0703 511.648 65.5078C513.055 64.9297 514.609 64.6406 516.312 64.6406C518.078 64.6406 519.68 64.9453 521.117 65.5547C522.555 66.1484 523.781 67.0156 524.797 68.1562C525.828 69.2969 526.633 70.6953 527.211 72.3516C527.789 73.9922 528.078 75.8516 528.078 77.9297H509.773ZM522.594 73.6641C522.344 72.2578 521.617 71.1328 520.414 70.2891C519.211 69.4297 517.844 69 516.312 69C514.781 69 513.406 69.4297 512.188 70.2891C510.969 71.1328 510.234 72.2578 509.984 73.6641H522.594ZM549.711 87L547.508 79.7109H537.383L535.227 87H530.141L539.68 56.4141H545.258L554.797 87H549.711ZM538.672 75.4219H546.219L542.469 62.8125L538.672 75.4219ZM576.055 87H561.383V82.6406H566.211V60.7969H561.383V56.4141H576.055V60.7969H571.062V82.6406H576.055V87Z" fill="url(#paint0_linear_214_218)"/>
<defs>
<linearGradient id="paint0_linear_214_218" x1="0" y1="0" x2="115.932" y2="305.95" gradientUnits="userSpaceOnUse">
<stop offset="0.158668" stop-color="#F76A4B"/>
<stop offset="0.60652" stop-color="#A24AE7"/>
<stop offset="0.891362" stop-color="#4859F3"/>
</linearGradient>
</defs>
</svg>
