<svg width="22" height="22" viewBox="0 0 22 22" fill="none" xmlns="http://www.w3.org/2000/svg">
<path d="M11 17.4167C14.0342 17.4167 16.5 14.9509 16.5 11.9167V7.33337C16.5 4.29921 14.0342 1.83337 11 1.83337C7.96583 1.83337 5.5 4.29921 5.5 7.33337V11.9167C5.5 14.9509 7.96583 17.4167 11 17.4167Z" stroke="#2B2C33" stroke-width="1.5" stroke-linecap="round" stroke-linejoin="round"/>
<path opacity="0.4" d="M2.75 10.0834V11.9167C2.75 16.4725 6.44417 20.1667 11 20.1667C15.5558 20.1667 19.25 16.4725 19.25 11.9167V10.0834" stroke="#2B2C33" stroke-width="1.5" stroke-linecap="round" stroke-linejoin="round"/>
<path opacity="0.4" d="M8.35107 6.85667C9.98274 6.26083 11.7611 6.26083 13.3927 6.85667" stroke="#2B2C33" stroke-width="1.5" stroke-linecap="round" stroke-linejoin="round"/>
<path opacity="0.4" d="M9.19434 9.60664C10.2943 9.30414 11.4585 9.30414 12.5585 9.60664" stroke="#2B2C33" stroke-width="1.5" stroke-linecap="round" stroke-linejoin="round"/>
</svg>
